<?xml version="1.0" standalone="no"?>
<!DOCTYPE svg PUBLIC "-//W3C//DTD SVG 20010904//EN"
 "http://www.w3.org/TR/2001/REC-SVG-20010904/DTD/svg10.dtd">
<svg version="1.0" xmlns="http://www.w3.org/2000/svg"
 width="160.000000pt" height="160.000000pt" viewBox="0 0 160.000000 160.000000"
 preserveAspectRatio="xMidYMid meet">

<g transform="translate(0.000000,160.000000) scale(0.100000,-0.100000)"
fill="#000000" stroke="none">
<path d="M651 1569 c-73 -14 -141 -39 -226 -82 -112 -58 -254 -199 -312 -312
-73 -142 -88 -208 -87 -380 0 -135 3 -158 27 -230 44 -130 99 -220 196 -315
161 -159 331 -230 551 -230 221 0 391 72 550 230 158 158 230 332 230 553 -1
218 -73 390 -230 547 -118 118 -235 183 -388 215 -73 16 -241 18 -311 4z m127
-236 c5 -10 7 -24 5 -30 -4 -12 19 -43 31 -43 10 0 6 24 -9 54 -8 15 -15 30
-15 32 0 2 20 4 45 4 50 0 53 -4 25 -40 -21 -27 -26 -50 -10 -50 6 0 10 -4 10
-9 0 -5 -33 -9 -73 -9 l-73 0 4 29 c5 36 -5 66 -18 53 -6 -6 -6 -22 -1 -41 20
-68 -40 -85 -62 -17 -6 16 -15 32 -21 36 -16 10 -2 20 51 34 68 18 101 17 111
-3z m224 -13 c14 0 6 -43 -9 -48 -7 -2 -13 3 -13 12 0 25 -19 18 -26 -9 -8
-32 1 -42 21 -25 12 10 15 9 15 -6 1 -16 6 -13 30 14 42 46 52 42 45 -20 l-6
-53 20 24 c12 13 21 29 21 37 0 20 12 17 48 -12 28 -24 46 -54 23 -40 -5 3
-19 -10 -32 -29 -28 -41 -45 -40 -41 1 3 25 -11 28 -14 3 -1 -5 -2 -11 -3 -14
0 -3 -26 11 -56 31 -31 19 -59 32 -64 29 -13 -7 -41 23 -41 44 0 27 40 73 57
67 8 -3 19 -6 25 -6z m-392 -41 c0 -10 4 -19 9 -19 21 0 22 -35 1 -52 -31 -25
-47 -22 -53 11 -3 16 -14 36 -23 45 -19 19 -18 22 16 34 32 12 50 5 50 -19z
m-68 -56 c19 -51 15 -71 -10 -51 -12 10 -14 10 -8 1 4 -7 5 -17 1 -23 -6 -10
-95 50 -92 62 3 10 81 66 87 61 2 -2 12 -25 22 -50z m-104 -35 c15 -15 16 -32
2 -23 -18 11 -11 -1 12 -21 19 -15 20 -16 9 -1 -16 20 -9 22 18 5 19 -11 18
-14 -17 -52 -26 -30 -43 -40 -60 -37 -15 2 -22 -1 -18 -8 4 -5 13 -8 21 -4 19
7 19 -11 1 -26 -11 -9 -19 -7 -40 14 -14 14 -32 25 -41 25 -8 0 -15 4 -15 9 0
15 22 26 50 24 22 -1 23 -1 3 4 -31 6 -29 13 13 62 40 45 44 47 62 29z m790
-39 c2 -19 -4 -33 -24 -48 -15 -11 -20 -21 -13 -21 19 1 49 24 49 39 0 21 18
11 38 -21 l21 -32 -21 -14 c-16 -12 -22 -12 -28 -2 -5 9 -9 9 -14 1 -4 -6 -1
-11 6 -11 8 -1 6 -6 -6 -15 -27 -20 -29 -20 -51 18 -10 17 -27 38 -37 45 -40
29 -6 95 45 90 26 -2 33 -8 35 -29z m-306 -82 c125 -1 184 -5 177 -12 -6 -6
-61 -9 -135 -7 -69 1 -141 -2 -160 -7 -28 -8 -45 -6 -76 6 -34 14 -49 14 -113
3 -70 -12 -101 -8 -90 10 3 5 11 7 18 4 7 -2 31 0 52 5 22 6 63 8 90 5 28 -3
134 -6 237 -7z m46 -49 c-2 -18 -16 -26 -68 -42 -36 -10 -67 -20 -69 -22 -3
-3 10 -20 28 -38 33 -34 33 -34 12 -48 -16 -10 -21 -23 -21 -59 l0 -46 61 -7
c34 -3 179 -6 321 -6 l259 0 -3 -22 c-3 -20 -11 -24 -73 -31 -38 -4 -346 -6
-683 -5 -663 3 -631 0 -632 56 0 22 0 22 171 22 99 0 168 4 165 9 -7 10 89 61
113 61 31 0 187 82 197 104 6 15 19 21 42 23 18 1 44 10 58 20 78 56 128 68
122 31z m-625 -14 c3 -4 -1 -20 -10 -37 -8 -17 -21 -61 -27 -98 -11 -68 -33
-91 -28 -29 3 46 40 170 51 170 4 0 10 -3 14 -6z m959 -48 c23 -60 35 -156 20
-156 -6 0 -14 21 -18 48 -4 26 -15 71 -25 101 -22 64 -22 64 -7 59 7 -3 21
-26 30 -52z m-246 -19 c39 1 85 4 102 8 19 4 32 3 32 -3 0 -17 -78 -26 -205
-24 -95 1 -122 5 -135 18 -14 15 -9 15 60 9 41 -5 107 -8 146 -8z m-471 -42
l50 -13 -80 -1 c-44 0 -103 -2 -132 -3 -34 -2 -57 2 -65 11 -11 11 -6 12 33 7
25 -4 56 -2 70 3 32 13 63 12 124 -4z m638 -48 c24 -10 3 -12 -129 -14 -93 -1
-153 2 -148 7 19 19 237 24 277 7z m92 -209 c-20 -70 -82 -175 -136 -229 -74
-74 -189 -142 -189 -111 0 4 26 21 58 39 107 59 182 150 240 296 14 33 36 37
27 5z m-981 -50 c44 -109 128 -200 232 -255 30 -15 54 -31 54 -35 0 -32 -117
37 -191 111 -61 61 -114 148 -134 220 -14 47 16 16 39 -41z m513 28 c35 -8 72
-12 83 -9 11 3 20 0 20 -6 0 -14 -64 -14 -110 -1 -19 6 -116 13 -215 15 -99 2
-183 4 -187 5 -5 0 -8 4 -8 10 0 15 342 4 417 -14z m-92 -64 c292 -5 305 -6
294 -17 -5 -5 -36 -9 -67 -8 -31 2 -131 3 -221 3 -90 1 -172 5 -182 11 -24 13
-25 34 -1 23 9 -5 89 -10 177 -12z m288 -77 c66 -5 104 -11 95 -16 -19 -12
-98 -11 -194 3 -56 8 -99 9 -135 2 -59 -10 -121 -5 -126 11 -3 12 194 12 360
0z m-307 -142 c30 -5 31 -6 26 -49 -3 -29 -1 -44 7 -44 6 0 11 7 11 15 0 8 5
15 10 15 6 0 10 -13 10 -30 0 -25 -4 -30 -24 -30 -47 0 -54 8 -50 58 2 26 1
39 -2 30 -7 -24 -20 -23 -27 2 -8 30 -27 24 -27 -9 0 -33 18 -51 31 -30 10 17
23 5 15 -16 -17 -45 -76 -13 -76 43 0 32 28 65 49 57 9 -4 30 -9 47 -12z m221
5 c13 -22 13 -85 -1 -97 -7 -6 -28 -14 -47 -17 -28 -6 -32 -4 -21 7 14 15 17
79 3 79 -6 0 -11 -19 -13 -41 -3 -45 -24 -67 -52 -56 -11 5 -16 19 -16 52 0
25 -4 45 -10 45 -5 0 -10 5 -10 10 0 6 21 10 48 11 26 1 58 5 72 9 36 11 38
11 47 -2z"/>
<path d="M740 1320 c0 -5 5 -10 10 -10 6 0 10 5 10 10 0 6 -4 10 -10 10 -5 0
-10 -4 -10 -10z"/>
<path d="M658 1285 c5 -28 22 -44 22 -21 0 21 -11 46 -20 46 -4 0 -5 -11 -2
-25z"/>
<path d="M1131 1204 c0 -11 3 -14 6 -6 3 7 2 16 -1 19 -3 4 -6 -2 -5 -13z"/>
<path d="M575 1270 c3 -5 8 -10 11 -10 2 0 4 5 4 10 0 6 -5 10 -11 10 -5 0 -7
-4 -4 -10z"/>
<path d="M590 1236 c0 -9 5 -16 10 -16 6 0 10 4 10 9 0 6 -4 13 -10 16 -5 3
-10 -1 -10 -9z"/>
<path d="M370 1132 c0 -5 14 -18 30 -30 34 -25 44 -7 12 21 -20 18 -42 22 -42
9z"/>
<path d="M1165 1140 c-27 -29 -6 -47 23 -20 12 12 22 25 22 30 0 17 -26 11
-45 -10z"/>
<path d="M1200 1049 c0 -5 5 -7 10 -4 6 3 10 8 10 11 0 2 -4 4 -10 4 -5 0 -10
-5 -10 -11z"/>
<path d="M805 910 c4 -6 11 -8 16 -5 14 9 11 15 -7 15 -8 0 -12 -5 -9 -10z"/>
<path d="M700 890 c-26 -14 -30 -19 -15 -19 35 -1 65 11 65 25 0 18 -8 17 -50
-6z"/>
<path d="M540 804 l-65 -34 148 0 c137 0 147 1 147 19 0 30 -23 41 -96 45 -63
4 -75 2 -134 -30z"/>
<path d="M920 310 c0 -5 5 -10 10 -10 6 0 10 5 10 10 0 6 -4 10 -10 10 -5 0
-10 -4 -10 -10z"/>
<path d="M835 275 c0 -40 10 -46 19 -12 9 34 7 47 -6 47 -8 0 -13 -14 -13 -35z"/>
<path d="M920 265 c0 -8 5 -15 10 -15 6 0 10 7 10 15 0 8 -4 15 -10 15 -5 0
-10 -7 -10 -15z"/>
</g>
</svg>
