<?xml version="1.0" standalone="no"?>
<!DOCTYPE svg PUBLIC "-//W3C//DTD SVG 20010904//EN"
 "http://www.w3.org/TR/2001/REC-SVG-20010904/DTD/svg10.dtd">
<svg version="1.0" xmlns="http://www.w3.org/2000/svg"
 width="2100.000000pt" height="275.000000pt" viewBox="0 0 2100.000000 275.000000"
 preserveAspectRatio="xMidYMid meet">

<g transform="translate(0.000000,275.000000) scale(0.100000,-0.100000)"
fill="#000000" stroke="none">
<path d="M18650 2203 c-197 -4 -498 -24 -670 -43 -337 -39 -553 -92 -739 -182
-189 -92 -447 -291 -571 -441 l-55 -66 -160 0 c-88 -1 -1292 4 -2675 10 -1921
9 -3327 8 -5951 -1 l-3436 -13 -48 54 c-283 312 -591 500 -950 578 -203 44
-456 73 -794 92 -245 13 -908 7 -1066 -11 -252 -27 -618 -109 -888 -197 l-118
-38 -115 -291 -115 -291 114 -289 114 -289 49 -18 c197 -75 660 -184 899 -212
290 -34 961 -37 1342 -5 569 47 857 128 1141 319 128 86 202 148 328 278 l112
114 2733 -11 c2125 -10 3485 -9 6104 0 l3370 12 145 -143 c197 -196 388 -327
592 -409 293 -116 830 -180 1522 -180 457 0 664 17 977 81 137 27 457 114 578
156 l54 19 115 291 114 290 -114 289 -114 289 -50 18 c-198 75 -650 182 -894
212 -119 15 -594 37 -710 33 -30 -1 -107 -3 -170 -5z"/>
</g>
</svg>
